<svg width="153" height="51" viewBox="0 0 153 51" fill="none" xmlns="http://www.w3.org/2000/svg">
<g clip-path="url(#clip0_359_11605)">
<path d="M140.816 -7.83906e-05H12.1908C11.722 -7.83906e-05 11.2588 -7.83906e-05 10.7911 0.00247161C10.3997 0.00502161 10.0114 0.0124294 9.61619 0.0186641C8.75765 0.0287389 7.90112 0.104059 7.05405 0.243969C6.20817 0.386926 5.38879 0.656439 4.62362 1.04339C3.85939 1.43362 3.16109 1.94069 2.55405 2.54619C1.94383 3.14998 1.43516 3.84789 1.0476 4.61308C0.65898 5.37674 0.389507 6.19507 0.248492 7.03981C0.106136 7.88348 0.0295331 8.73689 0.0193705 9.59236C0.00750526 9.98327 0.00625225 10.3755 0 10.7665V40.2371C0.00625225 40.633 0.00750526 41.0165 0.0193705 41.4126C0.0295362 42.268 0.106139 43.1213 0.248492 43.965C0.389118 44.8102 0.658607 45.629 1.0476 46.393C1.43498 47.1557 1.94372 47.8508 2.55405 48.4512C3.15879 49.0594 3.85754 49.5668 4.62362 49.954C5.38879 50.342 6.20808 50.6131 7.05405 50.7583C7.90126 50.8971 8.7577 50.9725 9.61619 50.9837C10.0114 50.9924 10.3997 50.9974 10.7911 50.9974C11.2587 50.9999 11.722 50.9999 12.1908 50.9999H140.816C141.276 50.9999 141.742 50.9999 142.202 50.9974C142.592 50.9974 142.991 50.9924 143.381 50.9837C144.238 50.973 145.092 50.8977 145.938 50.7583C146.787 50.6121 147.609 50.3411 148.378 49.954C149.143 49.5666 149.841 49.0592 150.445 48.4512C151.054 47.8484 151.564 47.1538 151.956 46.393C152.342 45.6285 152.609 44.8097 152.748 43.965C152.89 43.1212 152.97 42.2681 152.985 41.4126C152.99 41.0165 152.99 40.633 152.99 40.2371C153 39.7739 153 39.3133 153 38.8425V12.1585C153 11.6916 153 11.2284 152.99 10.7665C152.99 10.3755 152.99 9.98327 152.985 9.59231C152.97 8.73676 152.89 7.88355 152.748 7.03976C152.609 6.19551 152.342 5.37724 151.956 4.61302C151.167 3.0793 149.915 1.83085 148.378 1.04328C147.609 0.65727 146.786 0.387828 145.938 0.243855C145.093 0.103328 144.238 0.0279815 143.381 0.0184856C142.991 0.0122636 142.592 0.00479211 142.202 0.00230586C141.742 -0.000244141 141.276 -0.000244141 140.816 -0.000244141V-7.83906e-05Z" fill="black"/>
<path d="M10.7974 49.8842C10.4078 49.8842 10.0277 49.8793 9.64118 49.8706C8.84051 49.8602 8.04171 49.7907 7.25133 49.6626C6.51435 49.5361 5.80041 49.3006 5.13306 48.9641C4.47183 48.6303 3.86874 48.1927 3.34688 47.6679C2.81748 47.1493 2.37672 46.5479 2.04208 45.8874C1.70376 45.2226 1.46961 44.51 1.34781 43.7744C1.21628 42.9841 1.14511 42.1849 1.13493 41.3838C1.12682 41.1149 1.11621 40.2196 1.11621 40.2196V10.7664C1.11621 10.7664 1.12751 9.88484 1.13499 9.62585C1.14474 8.82602 1.2155 8.02809 1.34664 7.23896C1.46866 6.5014 1.70299 5.78676 2.04149 5.11978C2.3749 4.45973 2.81321 3.85783 3.33943 3.3374C3.86506 2.81202 4.47008 2.37212 5.13243 2.03375C5.79825 1.69827 6.51084 1.46449 7.24633 1.34022C8.03931 1.21089 8.84088 1.14097 9.64432 1.13105L10.798 1.11548H142.196L143.363 1.13167C144.159 1.14111 144.954 1.2104 145.739 1.33897C146.482 1.4648 147.202 1.70021 147.876 2.03748C149.203 2.71941 150.282 3.79829 150.963 5.12289C151.297 5.78527 151.527 6.49407 151.648 7.22527C151.78 8.02087 151.855 8.82507 151.87 9.63146C151.874 9.99254 151.874 10.3804 151.874 10.7664C151.884 11.2445 151.884 11.6996 151.884 12.1584V38.8425C151.884 39.3057 151.884 39.7577 151.874 40.2134C151.874 40.628 151.874 41.0078 151.869 41.3987C151.854 42.1907 151.781 42.9806 151.65 43.7619C151.531 44.5028 151.298 45.2209 150.96 45.8912C150.623 46.5445 150.185 47.1408 149.661 47.658C149.139 48.1855 148.535 48.6257 147.872 48.9616C147.2 49.3008 146.481 49.5371 145.739 49.6626C144.949 49.7914 144.15 49.8609 143.349 49.8706C142.975 49.8793 142.583 49.8842 142.202 49.8842L140.816 49.8868L10.7974 49.8842Z" fill="white"/>
<path d="M31.9602 25.3587C31.9745 24.252 32.2693 23.1669 32.8171 22.2044C33.365 21.2419 34.148 20.4332 35.0935 19.8536C34.4929 18.9982 33.7005 18.2942 32.7793 17.7976C31.8582 17.301 30.8335 17.0254 29.7869 16.9928C27.5542 16.7591 25.3897 18.325 24.2519 18.325C23.0922 18.325 21.3404 17.016 19.4541 17.0547C18.234 17.094 17.0448 17.4478 16.0026 18.0816C14.9604 18.7155 14.1006 19.6077 13.5069 20.6715C10.9356 25.111 12.8536 31.6357 15.3168 35.2243C16.5492 36.9816 17.9895 38.9444 19.8741 38.8748C21.7183 38.7986 22.4071 37.7021 24.6333 37.7021C26.8387 37.7021 27.4849 38.8748 29.4078 38.8306C31.3868 38.7986 32.6336 37.0655 33.8228 35.2917C34.7082 34.0396 35.3896 32.6557 35.8416 31.1914C34.6919 30.7065 33.7108 29.8948 33.0206 28.8576C32.3303 27.8204 31.9616 26.6035 31.9602 25.3587Z" fill="black"/>
<path d="M28.3283 14.6327C29.4073 13.3411 29.9389 11.6808 29.8102 10.0046C28.1617 10.1773 26.639 10.9629 25.5454 12.2051C25.0107 12.8119 24.6012 13.5178 24.3403 14.2825C24.0794 15.0472 23.9721 15.8558 24.0247 16.6618C24.8493 16.6703 25.665 16.4921 26.4104 16.1406C27.1559 15.7891 27.8116 15.2736 28.3283 14.6327Z" fill="black"/>
<path d="M54.0861 34.6028H48.0341L46.5807 38.8823H44.0173L49.7497 23.0493H52.413L58.1454 38.8823H55.5383L54.0861 34.6028ZM48.6609 32.628H53.4582L51.0933 25.6828H51.027L48.6609 32.628Z" fill="black"/>
<path d="M70.5253 33.1113C70.5253 36.6985 68.5999 39.0032 65.6944 39.0032C64.9584 39.0416 64.2264 38.8726 63.5822 38.5154C62.9381 38.1582 62.4078 37.6274 62.0522 36.9836H61.9972V42.7012H59.6211V27.339H61.921V29.2589H61.9647C62.3367 28.6183 62.876 28.0902 63.525 27.7309C64.1741 27.3715 64.9086 27.1943 65.6506 27.2182C68.5887 27.2182 70.5253 29.5341 70.5253 33.1113ZM68.083 33.1113C68.083 30.7743 66.8718 29.2378 65.0239 29.2378C63.2084 29.2378 61.9872 30.8066 61.9872 33.1113C61.9872 35.4372 63.2084 36.9949 65.0239 36.9949C66.8718 36.9949 68.0829 35.4696 68.0829 33.1113H68.083Z" fill="black"/>
<path d="M83.2669 33.1113C83.2669 36.6985 81.3409 39.0032 78.4353 39.0032C77.6993 39.0416 76.9673 38.8726 76.3232 38.5154C75.6791 38.1582 75.1488 37.6274 74.7931 36.9836H74.7382V42.7012H72.3621V27.339H74.662V29.2589H74.7057C75.0777 28.6183 75.6169 28.0902 76.266 27.7309C76.915 27.3715 77.6496 27.1943 78.3916 27.2182C81.3296 27.2182 83.2669 29.5341 83.2669 33.1113ZM80.824 33.1113C80.824 30.7743 79.6128 29.2378 77.7648 29.2378C75.9494 29.2378 74.7282 30.8066 74.7282 33.1113C74.7282 35.4372 75.9494 36.9949 77.7648 36.9949C79.6128 36.9949 80.824 35.4696 80.824 33.1113Z" fill="black"/>
<path d="M91.6863 34.4709C91.8623 36.041 93.3919 37.0719 95.482 37.0719C97.4848 37.0719 98.9257 36.0409 98.9257 34.6252C98.9257 33.3963 98.0567 32.6605 95.999 32.1562L93.9413 31.6618C91.0258 30.9596 89.6723 29.5999 89.6723 27.3936C89.6723 24.6618 92.0596 22.7854 95.4483 22.7854C98.8046 22.7854 101.105 24.6618 101.182 27.3936H98.7834C98.6398 25.8135 97.33 24.8598 95.4159 24.8598C93.5017 24.8598 92.1919 25.8247 92.1919 27.2292C92.1919 28.3486 93.0285 29.0073 95.075 29.5115L96.8243 29.9398C100.082 30.708 101.434 32.013 101.434 34.3288C101.434 37.291 99.0693 39.1462 95.3059 39.1462C91.7848 39.1462 89.4075 37.3346 89.2539 34.4708L91.6863 34.4709Z" fill="black"/>
<path d="M106.565 24.6072V27.339H108.766V29.2154H106.565V35.5791C106.565 36.5678 107.005 37.0285 107.973 37.0285C108.234 37.0239 108.495 37.0056 108.755 36.9736V38.8388C108.32 38.9199 107.877 38.9566 107.435 38.9484C105.091 38.9484 104.177 38.0706 104.177 35.8319V29.2154H102.494V27.339H104.177V24.6072H106.565Z" fill="black"/>
<path d="M110.04 33.1113C110.04 29.4793 112.185 27.197 115.53 27.197C118.886 27.197 121.021 29.4793 121.021 33.1113C121.021 36.7533 118.897 39.0256 115.53 39.0256C112.163 39.0256 110.04 36.7533 110.04 33.1113ZM118.6 33.1113C118.6 30.6198 117.455 29.1494 115.53 29.1494C113.604 29.1494 112.459 30.6311 112.459 33.1113C112.459 35.6128 113.604 37.072 115.53 37.072C117.455 37.072 118.6 35.6128 118.6 33.1113H118.6Z" fill="black"/>
<path d="M122.98 27.3389H125.246V29.3036H125.301C125.455 28.69 125.815 28.1477 126.322 27.7679C126.829 27.3881 127.452 27.1939 128.086 27.2181C128.36 27.2171 128.633 27.2468 128.9 27.3065V29.5228C128.554 29.4175 128.194 29.3691 127.832 29.3796C127.487 29.3656 127.143 29.4263 126.824 29.5575C126.504 29.6887 126.217 29.8873 125.982 30.1396C125.746 30.3919 125.569 30.692 125.461 31.0192C125.353 31.3465 125.317 31.6931 125.356 32.0354V38.8823H122.98L122.98 27.3389Z" fill="black"/>
<path d="M139.855 35.492C139.536 37.5875 137.489 39.0256 134.871 39.0256C131.503 39.0256 129.413 36.7757 129.413 33.1661C129.413 29.5453 131.514 27.197 134.771 27.197C137.974 27.197 139.988 29.3909 139.988 32.8909V33.7028H131.812V33.8459C131.774 34.2708 131.827 34.6987 131.968 35.1014C132.109 35.5041 132.334 35.8723 132.629 36.1816C132.923 36.4908 133.28 36.7341 133.676 36.8951C134.072 37.0561 134.498 37.1313 134.926 37.1156C135.487 37.1681 136.051 37.0384 136.532 36.7459C137.014 36.4533 137.388 36.0136 137.599 35.492L139.855 35.492ZM131.823 32.0468H137.61C137.632 31.6648 137.573 31.2825 137.44 30.924C137.306 30.5654 137.099 30.2383 136.832 29.9632C136.566 29.6881 136.245 29.471 135.89 29.3253C135.536 29.1797 135.154 29.1088 134.771 29.117C134.384 29.1147 134 29.1888 133.642 29.3351C133.284 29.4814 132.959 29.697 132.685 29.9694C132.411 30.2417 132.193 30.5656 132.045 30.9221C131.898 31.2787 131.822 31.6609 131.823 32.0468V32.0468Z" fill="black"/>
<path d="M48.3638 11.1319C48.862 11.0963 49.3619 11.1713 49.8274 11.3516C50.293 11.532 50.7126 11.8131 51.056 12.1747C51.3994 12.5363 51.658 12.9694 51.8132 13.4428C51.9685 13.9162 52.0164 14.418 51.9536 14.9121C51.9536 17.3426 50.6363 18.7396 48.3638 18.7396H45.6082V11.1319H48.3638ZM46.7931 17.6637H48.2315C48.5874 17.685 48.9437 17.6268 49.2742 17.4934C49.6048 17.36 49.9014 17.1548 50.1424 16.8927C50.3834 16.6306 50.5627 16.3182 50.6674 15.9783C50.7721 15.6383 50.7994 15.2794 50.7474 14.9276C50.7956 14.5772 50.7655 14.2205 50.6593 13.883C50.553 13.5456 50.3732 13.2358 50.1327 12.9757C49.8923 12.7157 49.5971 12.512 49.2684 12.3791C48.9397 12.2462 48.5856 12.1874 48.2315 12.207H46.7931V17.6637Z" fill="black"/>
<path d="M53.2921 15.8663C53.2559 15.489 53.2992 15.1084 53.4192 14.7487C53.5392 14.3891 53.7332 14.0584 53.9889 13.7779C54.2445 13.4975 54.5561 13.2734 54.9037 13.12C55.2513 12.9667 55.6272 12.8875 56.0072 12.8875C56.3873 12.8875 56.7632 12.9667 57.1108 13.12C57.4584 13.2734 57.77 13.4975 58.0256 13.7779C58.2813 14.0584 58.4753 14.3891 58.5953 14.7487C58.7153 15.1084 58.7586 15.489 58.7224 15.8663C58.7592 16.244 58.7165 16.6252 58.5968 16.9854C58.4771 17.3457 58.2832 17.6769 58.0275 17.958C57.7718 18.239 57.46 18.4636 57.112 18.6172C56.7641 18.7709 56.3878 18.8503 56.0072 18.8503C55.6267 18.8503 55.2504 18.7709 54.9025 18.6172C54.5545 18.4636 54.2427 18.239 53.987 17.958C53.7313 17.6769 53.5374 17.3457 53.4177 16.9854C53.298 16.6252 53.2553 16.244 53.2921 15.8663ZM57.5536 15.8663C57.5536 14.6218 56.993 13.8941 56.0091 13.8941C55.0215 13.8941 54.4659 14.6218 54.4659 15.8663C54.4659 17.1208 55.0215 17.843 56.0091 17.843C56.993 17.843 57.5537 17.1158 57.5537 15.8663H57.5536Z" fill="black"/>
<path d="M65.9406 18.7395H64.7619L63.572 14.5111H63.4821L62.2972 18.7395H61.1297L59.5427 12.9983H60.6952L61.7266 17.3792H61.8115L62.9951 12.9983H64.0852L65.2689 17.3792H65.3588L66.3851 12.9983H67.5214L65.9406 18.7395Z" fill="black"/>
<path d="M68.856 12.9983H69.9497V13.9104H70.0347C70.1787 13.5828 70.4216 13.3082 70.7296 13.1248C71.0376 12.9415 71.3952 12.8585 71.7527 12.8875C72.0329 12.8665 72.3142 12.9086 72.5758 13.0107C72.8374 13.1128 73.0725 13.2724 73.2639 13.4774C73.4553 13.6825 73.598 13.9279 73.6813 14.1954C73.7647 14.4629 73.7866 14.7457 73.7455 15.0229V18.7395H72.6093V15.3074C72.6093 14.3848 72.2072 13.9259 71.3669 13.9259C71.1767 13.9171 70.9869 13.9494 70.8103 14.0206C70.6338 14.0917 70.4748 14.2001 70.3443 14.3383C70.2137 14.4765 70.1146 14.6412 70.0538 14.8212C69.9931 15.0011 69.972 15.192 69.9922 15.3808V18.7395H68.856L68.856 12.9983Z" fill="black"/>
<path d="M75.5562 10.7571H76.6924V18.7395H75.5562V10.7571Z" fill="black"/>
<path d="M78.2718 15.8664C78.2357 15.4891 78.279 15.1084 78.399 14.7488C78.519 14.3891 78.7131 14.0584 78.9687 13.778C79.2244 13.4975 79.536 13.2734 79.8836 13.12C80.2313 12.9667 80.6072 12.8875 80.9873 12.8875C81.3674 12.8875 81.7433 12.9667 82.0909 13.12C82.4385 13.2734 82.7501 13.4975 83.0058 13.778C83.2615 14.0584 83.4555 14.3891 83.5755 14.7488C83.6955 15.1084 83.7388 15.4891 83.7027 15.8664C83.7395 16.2441 83.6967 16.6253 83.577 16.9856C83.4573 17.3458 83.2634 17.677 83.0076 17.9581C82.7519 18.2391 82.44 18.4636 82.0921 18.6173C81.7441 18.771 81.3678 18.8504 80.9873 18.8504C80.6067 18.8504 80.2304 18.771 79.8824 18.6173C79.5345 18.4636 79.2226 18.2391 78.9669 17.9581C78.7112 17.677 78.5172 17.3458 78.3975 16.9856C78.2778 16.6253 78.235 16.2441 78.2718 15.8664ZM82.5333 15.8664C82.5333 14.622 81.9727 13.8942 80.9888 13.8942C80.0012 13.8942 79.4456 14.622 79.4456 15.8665C79.4456 17.1209 80.0012 17.8431 80.9888 17.8431C81.9727 17.8431 82.5334 17.1159 82.5334 15.8664H82.5333Z" fill="black"/>
<path d="M84.8989 17.1159C84.8989 16.0824 85.6706 15.4866 87.0403 15.402L88.5998 15.3123V14.8168C88.5998 14.2104 88.1978 13.868 87.4211 13.868C86.7868 13.868 86.3473 14.1002 86.2212 14.5061H85.1212C85.2373 13.52 86.1675 12.8875 87.4736 12.8875C88.917 12.8875 89.7311 13.604 89.7311 14.8168V18.7395H88.6373V17.9327H88.5474C88.3649 18.2221 88.1087 18.458 87.8049 18.6164C87.501 18.7748 87.1605 18.8499 86.818 18.8341C86.5764 18.8592 86.3321 18.8334 86.101 18.7586C85.8698 18.6838 85.657 18.5615 85.4762 18.3996C85.2954 18.2377 85.1506 18.0398 85.0512 17.8187C84.9517 17.5976 84.8999 17.3582 84.8989 17.1159ZM88.5998 16.6253V16.1453L87.1939 16.2349C86.401 16.2879 86.0414 16.5568 86.0414 17.0629C86.0414 17.5797 86.4909 17.8804 87.109 17.8804C87.2901 17.8986 87.4731 17.8804 87.647 17.8267C87.8208 17.7731 87.9821 17.6851 88.1212 17.568C88.2603 17.4509 88.3744 17.3071 88.4566 17.1451C88.5388 16.9832 88.5875 16.8064 88.5998 16.6253Z" fill="black"/>
<path d="M91.2244 15.8664C91.2244 14.0523 92.1596 12.9031 93.6142 12.9031C93.974 12.8865 94.3311 12.9725 94.6438 13.1508C94.9564 13.3292 95.2117 13.5926 95.3797 13.9103H95.4647V10.7571H96.6009V18.7395H95.5121V17.8325H95.4222C95.2412 18.148 94.977 18.4081 94.6583 18.5847C94.3396 18.7613 93.9785 18.8475 93.6142 18.8341C92.1496 18.8342 91.2244 17.6849 91.2244 15.8664ZM92.3981 15.8664C92.3981 17.0842 92.9737 17.8169 93.9364 17.8169C94.8941 17.8169 95.4859 17.0736 95.4859 15.8714C95.4859 14.6749 94.8878 13.9209 93.9364 13.9209C92.9799 13.9209 92.3981 14.6587 92.3981 15.8664H92.3981Z" fill="black"/>
<path d="M101.302 15.8663C101.266 15.489 101.309 15.1084 101.429 14.7487C101.549 14.3891 101.743 14.0584 101.999 13.7779C102.254 13.4975 102.566 13.2734 102.913 13.12C103.261 12.9667 103.637 12.8875 104.017 12.8875C104.397 12.8875 104.773 12.9667 105.121 13.12C105.468 13.2734 105.78 13.4975 106.035 13.7779C106.291 14.0584 106.485 14.3891 106.605 14.7487C106.725 15.1084 106.768 15.489 106.732 15.8663C106.769 16.244 106.726 16.6252 106.607 16.9854C106.487 17.3457 106.293 17.6769 106.037 17.958C105.782 18.239 105.47 18.4636 105.122 18.6172C104.774 18.7709 104.398 18.8503 104.017 18.8503C103.636 18.8503 103.26 18.7709 102.912 18.6172C102.564 18.4636 102.252 18.239 101.997 17.958C101.741 17.6769 101.547 17.3457 101.427 16.9854C101.308 16.6252 101.265 16.244 101.302 15.8663ZM105.563 15.8663C105.563 14.6218 105.003 13.8941 104.019 13.8941C103.031 13.8941 102.476 14.6218 102.476 15.8663C102.476 17.1208 103.031 17.843 104.019 17.843C105.003 17.843 105.563 17.1158 105.563 15.8663Z" fill="black"/>
<path d="M108.257 12.9983H109.35V13.9104H109.435C109.579 13.5828 109.822 13.3082 110.13 13.1248C110.438 12.9415 110.796 12.8585 111.153 12.8875C111.434 12.8665 111.715 12.9086 111.976 13.0107C112.238 13.1128 112.473 13.2724 112.665 13.4774C112.856 13.6825 112.999 13.9279 113.082 14.1954C113.165 14.4629 113.187 14.7457 113.146 15.0229V18.7395H112.01V15.3074C112.01 14.3848 111.608 13.9259 110.768 13.9259C110.577 13.9171 110.387 13.9494 110.211 14.0206C110.034 14.0917 109.875 14.2001 109.745 14.3383C109.614 14.4765 109.515 14.6412 109.454 14.8212C109.394 15.0011 109.373 15.192 109.393 15.3808V18.7395H108.257V12.9983Z" fill="black"/>
<path d="M119.567 11.5688V13.0244H120.814V13.9788H119.567V16.9309C119.567 17.5323 119.815 17.7957 120.381 17.7957C120.526 17.7952 120.67 17.7865 120.814 17.7695V18.7133C120.61 18.7497 120.403 18.7691 120.196 18.7712C118.932 18.7712 118.429 18.328 118.429 17.221V13.9787H117.515V13.0243H118.429V11.5688H119.567Z" fill="black"/>
<path d="M122.366 10.7571H123.492V13.9209H123.582C123.733 13.5903 123.983 13.3141 124.297 13.1301C124.611 12.9461 124.974 12.8631 125.338 12.8925C125.616 12.8773 125.895 12.9237 126.154 13.0283C126.412 13.1329 126.644 13.2932 126.834 13.4976C127.023 13.702 127.165 13.9456 127.249 14.211C127.333 14.4764 127.358 14.757 127.32 15.0328V18.7395H126.183V15.3123C126.183 14.3953 125.755 13.9309 124.952 13.9309C124.757 13.9149 124.56 13.9417 124.376 14.0093C124.193 14.077 124.026 14.1838 123.888 14.3225C123.75 14.4611 123.644 14.6282 123.577 14.8119C123.51 14.9957 123.485 15.1918 123.502 15.3864V18.7395H122.366L122.366 10.7571Z" fill="black"/>
<path d="M133.946 17.1894C133.791 17.7141 133.457 18.168 133.001 18.4717C132.545 18.7753 131.996 18.9094 131.451 18.8504C131.072 18.8604 130.695 18.7879 130.346 18.6381C129.998 18.4882 129.686 18.2646 129.433 17.9826C129.18 17.7007 128.992 17.3672 128.881 17.0053C128.77 16.6435 128.74 16.2619 128.791 15.887C128.741 15.5111 128.772 15.1286 128.883 14.7657C128.993 14.4027 129.181 14.0677 129.432 13.7833C129.684 13.4989 129.994 13.2717 130.342 13.1172C130.689 12.9626 131.066 12.8843 131.446 12.8875C133.048 12.8875 134.014 13.9789 134.014 15.7818V16.1772H129.949V16.2407C129.931 16.4513 129.958 16.6634 130.027 16.8633C130.096 17.0631 130.206 17.2464 130.351 17.4012C130.495 17.5561 130.67 17.6791 130.865 17.7625C131.06 17.8459 131.27 17.8878 131.482 17.8854C131.754 17.9179 132.029 17.8691 132.273 17.7452C132.517 17.6213 132.719 17.4278 132.852 17.1894L133.946 17.1894ZM129.949 15.3392H132.857C132.871 15.1465 132.845 14.9529 132.78 14.771C132.715 14.589 132.612 14.4227 132.479 14.2826C132.345 14.1425 132.184 14.0318 132.005 13.9577C131.826 13.8835 131.633 13.8475 131.44 13.8519C131.243 13.8494 131.048 13.8862 130.866 13.9601C130.684 14.034 130.519 14.1435 130.38 14.2821C130.241 14.4207 130.131 14.5856 130.057 14.7672C129.983 14.9487 129.946 15.1432 129.949 15.3392H129.949Z" fill="black"/>
</g>
<defs>
<clipPath id="clip0_359_11605">
<rect width="153" height="51" fill="white"/>
</clipPath>
</defs>
</svg>
