<svg width="119" height="14" viewBox="0 0 119 14" fill="none" xmlns="http://www.w3.org/2000/svg">
<path d="M6.81885 13.1538C4.76807 13.1538 3.25391 12.6206 2.27637 11.5542C1.30566 10.4878 0.820312 8.83008 0.820312 6.58105C0.820312 2.25391 2.85059 0.090332 6.91113 0.090332C7.46484 0.090332 8.03906 0.14502 8.63379 0.254395C9.22852 0.36377 9.72412 0.517578 10.1206 0.71582C10.5239 0.907227 10.7256 1.12256 10.7256 1.36182C10.7256 1.53271 10.6572 1.7583 10.5205 2.03857C10.3838 2.31201 10.2197 2.55469 10.0283 2.7666C9.84375 2.97852 9.67969 3.08447 9.53613 3.08447C9.50195 3.08447 9.40967 3.05029 9.25928 2.98193C8.93115 2.84521 8.58594 2.73242 8.22363 2.64355C7.86816 2.54785 7.41357 2.5 6.85986 2.5C5.78662 2.5 4.99023 2.8418 4.4707 3.52539C3.95801 4.20215 3.70166 5.22754 3.70166 6.60156C3.70166 7.97559 3.96143 9.01123 4.48096 9.7085C5.00049 10.4058 5.77979 10.7544 6.81885 10.7544C7.35889 10.7544 7.82715 10.6997 8.22363 10.5903C8.62695 10.481 9.02002 10.3408 9.40283 10.1699C9.42334 10.1631 9.48486 10.1392 9.5874 10.0981C9.68994 10.0503 9.76514 10.0264 9.81299 10.0264C9.99072 10.0264 10.1616 10.1323 10.3257 10.3442C10.4897 10.5493 10.623 10.7852 10.7256 11.0518C10.8281 11.3115 10.8794 11.4995 10.8794 11.6157C10.8794 11.9507 10.6538 12.2344 10.2026 12.4668C9.7583 12.6992 9.21826 12.8735 8.58252 12.9897C7.95361 13.0991 7.36572 13.1538 6.81885 13.1538ZM15.7582 13.0308C15.0268 13.0308 14.661 12.8394 14.661 12.4565V0.961914C14.661 0.708984 14.7191 0.527832 14.8354 0.418457C14.9516 0.302246 15.1361 0.244141 15.3891 0.244141H18.9472C21.9687 0.244141 23.4794 1.38232 23.4794 3.65869C23.4794 4.34912 23.2846 4.94385 22.8949 5.44287C22.5121 5.94189 21.996 6.31445 21.3466 6.56055V6.63232C21.5722 6.72803 21.808 6.93311 22.0541 7.24756C22.307 7.56201 22.5087 7.91748 22.6591 8.31396L24.2689 12.3232C24.3236 12.4873 24.351 12.6035 24.351 12.6719C24.351 12.9111 23.9887 13.0308 23.2641 13.0308H22.5155C21.9071 13.0308 21.5551 12.9043 21.4594 12.6514L20.0136 9.09326C19.8769 8.81982 19.7436 8.60791 19.6137 8.45752C19.4906 8.30713 19.3163 8.19434 19.0907 8.11914C18.8651 8.03711 18.5609 7.99609 18.1781 7.99609H17.4706V12.4565C17.4706 12.8394 17.1049 13.0308 16.3734 13.0308H15.7582ZM19.1933 5.57617C19.4394 5.57617 19.6718 5.50781 19.8905 5.37109C20.1093 5.22754 20.2836 5.03613 20.4135 4.79688C20.5434 4.55762 20.6083 4.29443 20.6083 4.00732C20.6083 3.5835 20.4682 3.24854 20.1879 3.00244C19.9145 2.74951 19.5419 2.62305 19.0702 2.62305H17.4706V5.57617H19.1933ZM31.4344 13.0308C30.7029 13.0308 30.3372 12.8394 30.3372 12.4565V6.87842L26.7073 1.01318C26.5911 0.814941 26.533 0.664551 26.533 0.562012C26.533 0.445801 26.6287 0.356934 26.8201 0.29541C27.0184 0.227051 27.3123 0.192871 27.702 0.192871H28.471C28.7649 0.192871 29.0008 0.220215 29.1785 0.274902C29.3631 0.322754 29.493 0.411621 29.5682 0.541504L31.7933 4.44824L34.0389 0.541504C34.1141 0.411621 34.2439 0.322754 34.4285 0.274902C34.6131 0.220215 34.8489 0.192871 35.136 0.192871H35.782C36.1717 0.192871 36.4622 0.227051 36.6536 0.29541C36.845 0.356934 36.9407 0.445801 36.9407 0.562012C36.9407 0.69873 36.8826 0.849121 36.7664 1.01318L33.1468 6.92969V12.4565C33.1468 12.8394 32.7845 13.0308 32.0599 13.0308H31.4344ZM41.2863 13.0308C40.5549 13.0308 40.1892 12.8394 40.1892 12.4565V0.961914C40.1892 0.708984 40.2473 0.527832 40.3635 0.418457C40.4797 0.302246 40.6643 0.244141 40.9172 0.244141H44.7521C45.8869 0.244141 46.8918 0.520996 47.7668 1.07471C48.6418 1.62842 49.0793 2.68115 49.0793 4.23291C49.0793 5.29932 48.8264 6.12988 48.3205 6.72461C47.8146 7.3125 47.2438 7.70898 46.6081 7.91406C45.9792 8.11914 45.4187 8.22168 44.9265 8.22168H42.9987V12.4565C42.9987 12.8394 42.633 13.0308 41.9016 13.0308H41.2863ZM44.6188 5.81201C45.0563 5.81201 45.4289 5.6958 45.7365 5.46338C46.051 5.23096 46.2082 4.8208 46.2082 4.23291C46.2082 3.63818 46.051 3.22119 45.7365 2.98193C45.4221 2.74268 45.0495 2.62305 44.6188 2.62305H42.9987V5.81201H44.6188ZM56.1114 13.0308C55.38 13.0308 55.0143 12.8394 55.0143 12.4565V2.62305H52.1227C51.9313 2.62305 51.7911 2.55127 51.7022 2.40771C51.6202 2.26416 51.5792 2.03174 51.5792 1.71045V1.15674C51.5792 0.835449 51.6202 0.603027 51.7022 0.459473C51.7911 0.315918 51.9313 0.244141 52.1227 0.244141H60.7462C60.9376 0.244141 61.0743 0.315918 61.1563 0.459473C61.2452 0.603027 61.2896 0.835449 61.2896 1.15674V1.71045C61.2896 2.03174 61.2452 2.26416 61.1563 2.40771C61.0743 2.55127 60.9376 2.62305 60.7462 2.62305H57.8443V12.4565C57.8443 12.8394 57.4786 13.0308 56.7472 13.0308H56.1114ZM70.1982 13.1538C68.9541 13.1538 67.8945 12.9009 67.0195 12.395C66.1514 11.8892 65.4883 11.1509 65.0303 10.1802C64.5791 9.20264 64.3535 8.01318 64.3535 6.61182C64.3535 5.21729 64.5791 4.03467 65.0303 3.06396C65.4883 2.08643 66.1514 1.34814 67.0195 0.849121C67.8945 0.343262 68.9541 0.090332 70.1982 0.090332C71.4492 0.090332 72.5088 0.343262 73.377 0.849121C74.252 1.34814 74.915 2.08643 75.3662 3.06396C75.8174 4.03467 76.043 5.21729 76.043 6.61182C76.043 8.01318 75.8174 9.20264 75.3662 10.1802C74.915 11.1509 74.252 11.8892 73.377 12.395C72.5088 12.9009 71.4492 13.1538 70.1982 13.1538ZM70.1982 10.7544C71.1758 10.7544 71.9141 10.4023 72.4131 9.69824C72.9121 8.9873 73.1616 7.9585 73.1616 6.61182C73.1616 5.26514 72.9121 4.24316 72.4131 3.5459C71.9141 2.84863 71.1758 2.5 70.1982 2.5C69.2275 2.5 68.4893 2.85205 67.9834 3.55615C67.4844 4.25342 67.2349 5.27197 67.2349 6.61182C67.2349 7.9585 67.4878 8.9873 67.9937 9.69824C68.4995 10.4023 69.2344 10.7544 70.1982 10.7544ZM80.9525 13C80.6996 13 80.515 12.9419 80.3988 12.8257C80.2826 12.7095 80.2245 12.5249 80.2245 12.272V0.961914C80.2245 0.708984 80.2826 0.527832 80.3988 0.418457C80.515 0.302246 80.6996 0.244141 80.9525 0.244141H84.5619C86.0385 0.244141 87.1254 0.53125 87.8227 1.10547C88.5199 1.67285 88.8686 2.45898 88.8686 3.46387C88.8686 4.06543 88.6806 4.61914 88.3046 5.125C87.9286 5.63086 87.4569 6 86.8895 6.23242L86.9101 6.3042C87.3886 6.3999 87.8124 6.59473 88.1815 6.88867C88.5575 7.18262 88.848 7.5415 89.0531 7.96533C89.265 8.38916 89.371 8.8335 89.371 9.29834C89.371 10.4946 88.9916 11.4106 88.2328 12.0464C87.474 12.6821 86.3358 13 84.8183 13H80.9525ZM84.2851 5.31982C84.8183 5.31982 85.2318 5.19336 85.5258 4.94043C85.8266 4.68066 85.977 4.35254 85.977 3.95605C85.977 3.05371 85.4232 2.60254 84.3158 2.60254H83.0341V5.31982H84.2851ZM84.8183 10.6108C85.3446 10.6108 85.7548 10.4844 86.0487 10.2314C86.3427 9.97168 86.4896 9.60596 86.4896 9.13428C86.4896 8.66943 86.3187 8.31738 85.977 8.07812C85.642 7.83887 85.1566 7.71924 84.5209 7.71924H83.0341V10.6108H84.8183ZM98.3616 13.1538C97.2542 13.1538 96.304 12.9795 95.511 12.6309C94.7249 12.2822 94.1233 11.7798 93.7063 11.1235C93.2894 10.4604 93.0809 9.66406 93.0809 8.73438V0.787598C93.0809 0.589355 93.1697 0.442383 93.3475 0.34668C93.5252 0.244141 93.802 0.192871 94.178 0.192871H94.7933C95.1692 0.192871 95.4427 0.244141 95.6136 0.34668C95.7913 0.442383 95.8802 0.589355 95.8802 0.787598V8.5498C95.8802 8.97363 95.9827 9.35303 96.1878 9.68799C96.3997 10.0229 96.6936 10.2861 97.0696 10.4775C97.4456 10.6621 97.8763 10.7544 98.3616 10.7544C98.847 10.7544 99.2776 10.6621 99.6536 10.4775C100.036 10.2861 100.334 10.0229 100.546 9.68799C100.758 9.35303 100.864 8.97363 100.864 8.5498V0.787598C100.864 0.589355 100.949 0.442383 101.12 0.34668C101.298 0.244141 101.575 0.192871 101.95 0.192871H102.555C102.931 0.192871 103.205 0.244141 103.376 0.34668C103.554 0.442383 103.642 0.589355 103.642 0.787598V8.73438C103.642 9.66406 103.434 10.4604 103.017 11.1235C102.6 11.7798 101.995 12.2822 101.202 12.6309C100.416 12.9795 99.469 13.1538 98.3616 13.1538ZM108.942 13C108.689 13 108.504 12.9419 108.388 12.8257C108.272 12.7095 108.214 12.5249 108.214 12.272V0.961914C108.214 0.708984 108.272 0.527832 108.388 0.418457C108.504 0.302246 108.689 0.244141 108.942 0.244141H113.023C114.274 0.244141 115.333 0.490234 116.201 0.982422C117.076 1.46777 117.736 2.18555 118.18 3.13574C118.632 4.08594 118.857 5.24463 118.857 6.61182C118.857 7.98584 118.632 9.14795 118.18 10.0981C117.736 11.0483 117.076 11.7695 116.201 12.2617C115.333 12.7539 114.274 13 113.023 13H108.942ZM113.023 10.6108C113.993 10.6108 114.728 10.2725 115.227 9.5957C115.726 8.91211 115.976 7.91748 115.976 6.61182C115.976 5.31299 115.726 4.3252 115.227 3.64844C114.728 2.96484 113.993 2.62305 113.023 2.62305H111.044V10.6108H113.023Z" fill="white"/>
</svg>
