<svg width="58" height="53" viewBox="0 0 58 53" fill="none" xmlns="http://www.w3.org/2000/svg">
<rect x="0.5" y="0.5" width="57" height="52" rx="10.5" fill="#280689" stroke="#0049B7"/>
<path d="M38.5 4L53.6554 36.25H23.3446L38.5 4Z" fill="#151313"/>
<path d="M22.061 37.285C18.2794 37.285 15.4874 36.2121 13.6849 34.0664C11.895 31.9207 11 28.5852 11 24.06C11 15.3533 14.7437 11 22.2311 11C23.2522 11 24.311 11.11 25.4076 11.3301C26.5043 11.5502 27.4181 11.8597 28.1492 12.2585C28.8929 12.6437 29.2648 13.0769 29.2648 13.5584C29.2648 13.9022 29.1387 14.3561 28.8866 14.9201C28.6345 15.4702 28.332 15.9585 27.9791 16.3849C27.6387 16.8113 27.3362 17.0245 27.0715 17.0245C27.0085 17.0245 26.8383 16.9557 26.561 16.8182C25.956 16.5431 25.3194 16.3161 24.6513 16.1373C23.9959 15.9448 23.1576 15.8485 22.1366 15.8485C20.1576 15.8485 18.6891 16.5362 17.7311 17.9117C16.7857 19.2734 16.3131 21.3366 16.3131 24.1012C16.3131 26.8659 16.792 28.9497 17.75 30.3527C18.708 31.7557 20.145 32.4571 22.061 32.4571C23.0568 32.4571 23.9202 32.3471 24.6513 32.127C25.395 31.907 26.1198 31.625 26.8257 31.2811C26.8635 31.2674 26.977 31.2192 27.166 31.1367C27.3551 31.0404 27.4938 30.9923 27.582 30.9923C27.9097 30.9923 28.2249 31.2055 28.5274 31.6319C28.8299 32.0445 29.0757 32.519 29.2648 33.0555C29.4539 33.5781 29.5484 33.9564 29.5484 34.1902C29.5484 34.8642 29.1324 35.435 28.3005 35.9027C27.4812 36.3703 26.4854 36.7211 25.3131 36.9549C24.1534 37.175 23.0694 37.285 22.061 37.285Z" fill="white"/>
<path d="M31.4768 43C31.0104 43 30.6701 42.8831 30.4558 42.6493C30.2415 42.4154 30.1344 42.0441 30.1344 41.5351V18.7782C30.1344 18.2693 26.8572 17.2446 27.0715 17.0245C27.2858 16.7907 31.0104 17.334 31.4768 17.334H38.1323C40.855 17.334 12.3992 32.911 13.6849 34.0664C14.9706 35.2081 46.0735 21.7904 46.0735 23.8124C46.0735 25.0228 45.7269 26.1369 45.0336 27.1547C44.3403 28.1726 43.4706 28.9153 42.4243 29.383L42.4622 29.5274C43.3445 29.72 44.126 30.112 44.8067 30.7034C45.5 31.2949 46.0357 32.017 46.4139 32.8698C46.8046 33.7225 47 34.6166 47 35.5519C47 37.9589 46.3004 39.8021 44.9013 41.0812C43.5021 42.3604 41.4033 43 38.605 43H31.4768ZM37.6218 27.5467C38.605 27.5467 39.3676 27.2923 39.9096 26.7834C40.4643 26.2607 40.7416 25.6005 40.7416 24.8027C40.7416 22.9871 39.7206 22.0793 37.6785 22.0793H35.3151V27.5467H37.6218ZM38.605 38.1928C39.5756 38.1928 40.3319 37.9383 40.8739 37.4294C41.4159 36.9067 41.6869 36.1709 41.6869 35.2218C41.6869 34.2865 41.3718 33.5781 40.7416 33.0967C40.1239 32.6153 39.229 32.3746 38.0567 32.3746H35.3151V38.1928H38.605Z" fill="white"/>
</svg>
